<svg width="264" height="81" viewBox="0 0 264 81" fill="none" xmlns="http://www.w3.org/2000/svg">
<path d="M68.7011 8.05599L67.5491 8.15199C68.0611 28.184 68.7971 42.424 69.7571 50.872C70.0131 52.92 70.9091 55 72.4451 57.112C74.0451 59.16 74.8451 60.92 74.8451 62.392C74.8451 63.8 74.3971 65.016 73.5011 66.04C72.6691 67.064 71.5171 67.576 70.0451 67.576C68.6371 67.576 67.4211 66.712 66.3971 64.984C65.4371 63.192 64.8611 61.272 64.6691 59.224C63.0051 37.784 61.0851 21.624 58.9091 10.744C53.0851 13.688 47.3891 18.776 41.8211 26.008C46.8771 34.008 49.4051 40.824 49.4051 46.456C49.4051 52.024 47.5171 56.856 43.7411 60.952C39.9651 64.984 36.4451 67 33.1811 67C29.9171 67 27.3891 65.944 25.5971 63.832C23.8691 61.72 23.0051 59.128 23.0051 56.056C23.0051 52.92 24.0291 48.984 26.0771 44.248C28.1891 39.448 30.9411 34.456 34.3331 29.272C31.3251 24.856 27.9011 20.952 24.0611 17.56C20.2211 14.104 16.4771 11.736 12.8291 10.456C11.2931 21.272 10.2691 29.432 9.75712 34.936C9.30912 40.376 8.95712 46.296 8.70112 52.696C8.44512 59.032 8.28512 62.744 8.22112 63.832C8.15712 64.856 7.77312 65.752 7.06912 66.52C6.36512 67.224 5.53312 67.576 4.57312 67.576C3.61312 67.576 2.71712 67.224 1.88512 66.52C1.11712 65.752 0.733124 64.696 0.733124 63.352C0.733124 62.008 1.21312 58.2 2.17312 51.928C4.28512 38.808 5.46912 24.6 5.72512 9.30399C3.10112 8.72799 1.78912 7.09599 1.78912 4.40799C1.78912 3.19199 2.36512 2.19999 3.51712 1.43199C4.66912 0.599991 6.07712 0.18399 7.74112 0.18399C12.6691 0.18399 17.9811 2.29599 23.6771 6.51999C29.4371 10.68 34.6211 15.928 39.2291 22.264C44.0931 15.8 49.1171 10.52 54.3011 6.42399C59.4851 2.26399 64.2851 0.18399 68.7011 0.18399C71.7091 0.18399 73.2131 1.39999 73.2131 3.83199C73.2131 4.98399 72.7011 5.97599 71.6771 6.80799C70.7171 7.63999 69.7251 8.05599 68.7011 8.05599ZM41.8211 49.816C41.8211 44.952 40.1251 39.448 36.7331 33.304C31.5491 41.624 28.9571 47.896 28.9571 52.12C28.9571 54.424 29.5331 56.44 30.6851 58.168C31.9011 59.896 33.4051 60.76 35.1971 60.76C36.9891 60.76 38.5251 59.64 39.8051 57.4C41.1491 55.096 41.8211 52.568 41.8211 49.816Z" fill="#B6B6B6"/>
<path d="M82.6871 63.496C82.6871 59.464 82.6071 55.928 82.4471 52.888C82.2871 49.848 82.2071 48.056 82.2071 47.512C82.2071 46.968 82.4151 46.44 82.8311 45.928C83.2791 45.384 83.8071 45.112 84.4151 45.112C85.0231 45.112 85.5191 45.368 85.9031 45.88C86.2871 46.36 86.4791 47.08 86.4791 48.04C86.4791 48.968 86.3671 50.552 86.1431 52.792C85.9191 55 85.8071 57.304 85.8071 59.704C85.8071 60.664 85.9991 61.592 86.3831 62.488C86.7991 63.352 87.0071 64.152 87.0071 64.888C87.0071 65.592 86.7991 66.168 86.3831 66.616C85.9991 67.064 85.4551 67.288 84.7511 67.288C84.0791 67.288 83.5671 66.904 83.2151 66.136C82.8631 65.368 82.6871 64.488 82.6871 63.496ZM84.2231 39.688C83.5191 39.688 82.9591 39.496 82.5431 39.112C82.1271 38.728 81.9191 38.168 81.9191 37.432C81.9191 36.696 82.1751 36.072 82.6871 35.56C83.1991 35.016 83.8071 34.744 84.5111 34.744C85.2151 34.744 85.7751 34.952 86.1911 35.368C86.6391 35.752 86.8631 36.312 86.8631 37.048C86.8631 37.784 86.5911 38.408 86.0471 38.92C85.5351 39.432 84.9271 39.688 84.2231 39.688Z" fill="#B6B6B6"/>
<path d="M97.9612 55.72L98.3452 64.408C98.3452 65.272 98.1212 65.976 97.6732 66.52C97.2572 67.032 96.7452 67.288 96.1372 67.288C95.5292 67.288 95.0332 67.048 94.6492 66.568C94.2652 66.056 94.0732 65.368 94.0732 64.504C94.0732 63.64 94.1532 62.408 94.3132 60.808C94.6332 57.608 94.7932 54.904 94.7932 52.696C94.7932 51.736 94.4892 50.824 93.8812 49.96C93.3052 49.064 93.0172 48.264 93.0172 47.56C93.0172 46.856 93.2572 46.28 93.7372 45.832C94.2172 45.352 94.7612 45.112 95.3692 45.112C96.9692 45.112 97.7692 46.376 97.7692 48.904V50.776C98.7292 49.048 99.8812 47.672 101.225 46.648C102.569 45.624 103.801 45.112 104.921 45.112C106.041 45.112 106.889 45.4 107.465 45.976C108.073 46.52 108.377 47.256 108.377 48.184C108.377 49.112 108.153 49.896 107.705 50.536C107.257 51.144 106.777 51.448 106.265 51.448C105.753 51.448 105.353 51.32 105.065 51.064C104.809 50.776 104.617 50.488 104.489 50.2C104.361 49.88 104.121 49.592 103.769 49.336C103.417 49.048 102.969 48.904 102.425 48.904C101.497 48.904 100.569 49.512 99.6412 50.728C98.7132 51.944 98.1532 53.608 97.9612 55.72Z" fill="#B6B6B6"/>
<path d="M112.536 55.48L112.2 47.464C112.2 46.792 112.408 46.232 112.824 45.784C113.272 45.336 113.8 45.112 114.408 45.112C115.016 45.112 115.512 45.336 115.896 45.784C116.28 46.2 116.472 46.728 116.472 47.368C116.472 48.008 116.456 48.488 116.424 48.808C118.28 46.344 120.248 45.112 122.328 45.112C124.76 45.112 126.504 46.568 127.56 49.48C129.608 46.568 131.816 45.112 134.184 45.112C137.224 45.112 139.192 47.368 140.088 51.88L141.768 60.136C141.928 60.904 142.312 61.72 142.92 62.584C143.528 63.416 143.832 64.216 143.832 64.984C143.832 65.72 143.592 66.296 143.112 66.712C142.664 67.096 142.12 67.288 141.48 67.288C140.008 67.288 139.048 66.024 138.6 63.496L136.824 53.464C136.6 52.056 136.136 50.904 135.432 50.008C134.728 49.112 133.816 48.664 132.696 48.664C131.192 48.664 129.752 49.96 128.376 52.552L129.912 60.136C130.072 60.904 130.456 61.72 131.064 62.584C131.672 63.416 131.976 64.216 131.976 64.984C131.976 65.72 131.736 66.296 131.256 66.712C130.808 67.096 130.264 67.288 129.624 67.288C128.152 67.288 127.192 66.024 126.744 63.496L124.968 53.464C124.744 52.152 124.2 51.032 123.336 50.104C122.472 49.144 121.432 48.664 120.216 48.664C119.032 48.664 118.072 49.128 117.336 50.056C116.632 50.984 116.248 51.912 116.184 52.84C116.152 53.736 116.136 54.616 116.136 55.48L116.472 64.984C116.472 65.656 116.28 66.216 115.896 66.664C115.512 67.08 115.016 67.288 114.408 67.288C113.8 67.288 113.272 67.08 112.824 66.664C112.408 66.216 112.2 65.656 112.2 64.984L112.536 55.48Z" fill="#B6B6B6"/>
<path d="M149.156 63.496C149.156 59.464 149.076 55.928 148.916 52.888C148.756 49.848 148.676 48.056 148.676 47.512C148.676 46.968 148.884 46.44 149.3 45.928C149.748 45.384 150.276 45.112 150.884 45.112C151.492 45.112 151.988 45.368 152.372 45.88C152.756 46.36 152.948 47.08 152.948 48.04C152.948 48.968 152.836 50.552 152.612 52.792C152.388 55 152.276 57.304 152.276 59.704C152.276 60.664 152.468 61.592 152.852 62.488C153.268 63.352 153.476 64.152 153.476 64.888C153.476 65.592 153.268 66.168 152.852 66.616C152.468 67.064 151.924 67.288 151.22 67.288C150.548 67.288 150.036 66.904 149.684 66.136C149.332 65.368 149.156 64.488 149.156 63.496ZM150.692 39.688C149.988 39.688 149.428 39.496 149.012 39.112C148.596 38.728 148.388 38.168 148.388 37.432C148.388 36.696 148.644 36.072 149.156 35.56C149.668 35.016 150.276 34.744 150.98 34.744C151.684 34.744 152.244 34.952 152.66 35.368C153.108 35.752 153.332 36.312 153.332 37.048C153.332 37.784 153.06 38.408 152.516 38.92C152.004 39.432 151.396 39.688 150.692 39.688Z" fill="#B6B6B6"/>
<path d="M168.606 48.856C166.494 48.856 164.766 49.592 163.422 51.064C162.11 52.504 161.454 54.232 161.454 56.248C161.454 58.264 162.142 59.976 163.518 61.384C164.926 62.792 166.638 63.496 168.654 63.496C170.446 63.496 172.062 62.84 173.502 61.528C174.014 61.08 174.398 60.856 174.654 60.856C174.91 60.856 175.134 60.952 175.326 61.144C175.518 61.336 175.614 61.544 175.614 61.768C175.614 62.696 174.702 63.848 172.878 65.224C171.086 66.6 169.038 67.288 166.734 67.288C164.462 67.288 162.478 66.36 160.782 64.504C159.118 62.648 158.286 60.344 158.286 57.592C158.286 54.072 159.614 51.112 162.27 48.712C164.926 46.312 167.854 45.112 171.054 45.112C172.398 45.112 173.486 45.352 174.318 45.832C175.182 46.28 175.614 46.872 175.614 47.608C175.614 48.312 175.39 48.888 174.942 49.336C174.526 49.784 174.11 50.008 173.694 50.008C173.278 50.008 172.558 49.816 171.534 49.432C170.542 49.048 169.566 48.856 168.606 48.856Z" fill="#B6B6B6"/>
<path d="M192.869 58.792L192.389 47.992C192.389 47.128 192.597 46.44 193.013 45.928C193.461 45.384 193.989 45.112 194.597 45.112C195.205 45.112 195.701 45.368 196.085 45.88C196.469 46.36 196.661 47.032 196.661 47.896C196.661 48.728 196.565 49.912 196.373 51.448C195.989 54.52 195.797 57.272 195.797 59.704C195.797 60.664 196.101 61.592 196.709 62.488C197.349 63.352 197.669 64.136 197.669 64.84C197.669 65.544 197.429 66.136 196.949 66.616C196.469 67.064 195.925 67.288 195.317 67.288C193.717 67.288 192.917 66.024 192.917 63.496C191.413 66.024 189.525 67.288 187.253 67.288C185.429 67.288 183.973 66.632 182.885 65.32C181.829 64.008 181.093 62.408 180.677 60.52L178.853 52.264C178.661 51.336 178.229 50.52 177.557 49.816C176.917 49.08 176.597 48.344 176.597 47.608C176.597 46.872 176.853 46.28 177.365 45.832C177.877 45.352 178.485 45.112 179.189 45.112C180.789 45.112 181.829 46.376 182.309 48.904L184.133 58.936C184.741 62.136 186.261 63.736 188.693 63.736C189.877 63.736 190.853 63.272 191.621 62.344C192.389 61.384 192.805 60.2 192.869 58.792Z" fill="#B6B6B6"/>
<path d="M205.734 80.92C205.126 80.92 204.582 80.68 204.102 80.2C203.654 79.752 203.43 79.096 203.43 78.232C203.43 78.072 203.574 77.016 203.862 75.064C204.182 73.112 204.342 69.848 204.342 65.272C204.342 60.696 204.262 56.504 204.102 52.696C204.07 51.96 203.782 51.112 203.238 50.152C202.726 49.192 202.47 48.344 202.47 47.608C202.47 46.872 202.71 46.28 203.19 45.832C203.67 45.352 204.214 45.112 204.822 45.112C206.422 45.112 207.222 46.376 207.222 48.904V51.16C208.566 49.304 210.182 47.832 212.07 46.744C213.99 45.656 215.766 45.112 217.398 45.112C219.542 45.112 221.27 45.912 222.582 47.512C223.894 49.08 224.55 50.92 224.55 53.032C224.55 55.144 224.134 57.112 223.302 58.936C222.47 60.76 221.414 62.264 220.134 63.448C218.854 64.632 217.494 65.576 216.054 66.28C214.614 66.952 213.238 67.288 211.926 67.288C210.39 67.288 209.622 66.536 209.622 65.032C209.622 64.36 209.862 63.864 210.342 63.544C210.822 63.224 211.302 63.064 211.782 63.064C212.262 63.064 212.758 63.144 213.27 63.304C213.814 63.464 214.31 63.544 214.758 63.544C216.678 63.544 218.294 62.84 219.606 61.432C220.918 59.992 221.574 58.248 221.574 56.2C221.574 54.152 220.918 52.424 219.606 51.016C218.294 49.608 216.678 48.904 214.758 48.904C212.262 48.904 210.422 49.912 209.238 51.928C208.086 53.944 207.51 56.696 207.51 60.184C207.51 62.04 207.638 64.968 207.894 68.968C208.15 72.968 208.278 75.688 208.278 77.128C208.278 79.656 207.43 80.92 205.734 80.92Z" fill="#B6B6B6"/>
<path d="M237.182 57.448L231.47 56.968C230.926 56.968 230.494 57.016 230.174 57.112C230.366 58.936 231.134 60.456 232.478 61.672C233.854 62.888 235.47 63.496 237.326 63.496C239.118 63.496 240.734 62.84 242.174 61.528C242.686 61.08 243.07 60.856 243.326 60.856C243.582 60.856 243.806 60.952 243.998 61.144C244.19 61.336 244.286 61.544 244.286 61.768C244.286 62.696 243.374 63.848 241.55 65.224C239.758 66.6 237.71 67.288 235.406 67.288C233.134 67.288 231.15 66.36 229.454 64.504C227.79 62.648 226.958 60.344 226.958 57.592C226.958 54.072 228.286 51.112 230.942 48.712C233.598 46.312 236.526 45.112 239.726 45.112C241.07 45.112 242.158 45.352 242.99 45.832C243.854 46.28 244.286 46.872 244.286 47.608C244.286 48.312 244.062 48.888 243.614 49.336C243.198 49.784 242.782 50.008 242.366 50.008C241.95 50.008 241.23 49.816 240.206 49.432C239.214 49.048 238.254 48.856 237.326 48.856C235.598 48.856 234.094 49.384 232.814 50.44C231.566 51.464 230.734 52.744 230.318 54.28L236.942 53.896C238.414 53.896 239.15 54.472 239.15 55.624C239.15 56.84 238.494 57.448 237.182 57.448Z" fill="#B6B6B6"/>
<path d="M252.602 55.72L252.986 64.408C252.986 65.272 252.762 65.976 252.314 66.52C251.898 67.032 251.386 67.288 250.778 67.288C250.17 67.288 249.674 67.048 249.29 66.568C248.906 66.056 248.714 65.368 248.714 64.504C248.714 63.64 248.794 62.408 248.954 60.808C249.274 57.608 249.434 54.904 249.434 52.696C249.434 51.736 249.13 50.824 248.522 49.96C247.946 49.064 247.658 48.264 247.658 47.56C247.658 46.856 247.898 46.28 248.378 45.832C248.858 45.352 249.402 45.112 250.01 45.112C251.61 45.112 252.41 46.376 252.41 48.904V50.776C253.37 49.048 254.522 47.672 255.866 46.648C257.21 45.624 258.442 45.112 259.562 45.112C260.682 45.112 261.53 45.4 262.106 45.976C262.714 46.52 263.018 47.256 263.018 48.184C263.018 49.112 262.794 49.896 262.346 50.536C261.898 51.144 261.418 51.448 260.906 51.448C260.394 51.448 259.994 51.32 259.706 51.064C259.45 50.776 259.258 50.488 259.13 50.2C259.002 49.88 258.762 49.592 258.41 49.336C258.058 49.048 257.61 48.904 257.066 48.904C256.138 48.904 255.21 49.512 254.282 50.728C253.354 51.944 252.794 53.608 252.602 55.72Z" fill="#B6B6B6"/>
</svg>
